<svg width="40" height="40" viewBox="0 0 40 40" fill="none" xmlns="http://www.w3.org/2000/svg">
<rect width="40" height="40" rx="20" fill="white"/>
<path d="M25.7691 13.4488C25.0492 12.733 24.0762 12.3296 23.061 12.326C22.0457 12.3224 21.0699 12.7189 20.3449 13.4297L13.9624 19.701C13.7815 19.8792 13.5373 19.9784 13.2833 19.977C13.0294 19.9755 12.7863 19.8735 12.6074 19.6933C12.5189 19.6042 12.449 19.4984 12.4016 19.3821C12.3541 19.2658 12.3302 19.1413 12.3311 19.0157C12.332 18.8901 12.3577 18.766 12.4067 18.6503C12.4558 18.5347 12.5272 18.43 12.6169 18.3421L18.9975 12.0727C20.0831 11.0071 21.5448 10.4122 23.066 10.4168C24.5871 10.4215 26.0452 11.0254 27.1242 12.0976C27.6595 12.6296 28.0843 13.2623 28.3742 13.9591C28.664 14.656 28.8133 15.4033 28.8133 16.158C28.8133 16.9128 28.664 17.6601 28.3742 18.3569C28.0843 19.0538 27.6595 19.6864 27.1242 20.2185L18.8212 28.487C18.1152 29.1888 17.1602 29.5827 16.1647 29.5827C15.1692 29.5827 14.2142 29.1888 13.5082 28.487C13.1595 28.1402 12.8828 27.7279 12.694 27.2738C12.5052 26.8197 12.408 26.3328 12.408 25.841C12.408 25.3493 12.5052 24.8623 12.694 24.4082C12.8828 23.9541 13.1595 23.5419 13.5082 23.1951L21.2515 15.4843C21.4314 15.3057 21.6746 15.2055 21.9281 15.2055C22.1816 15.2055 22.4248 15.3057 22.6047 15.4843C22.6935 15.5728 22.7639 15.678 22.812 15.7937C22.86 15.9095 22.8848 16.0336 22.8848 16.159C22.8848 16.2843 22.86 16.4085 22.812 16.5242C22.7639 16.64 22.6935 16.7452 22.6047 16.8337L14.8633 24.5444C14.6924 24.7143 14.5568 24.9164 14.4642 25.1389C14.3717 25.3614 14.324 25.6 14.324 25.841C14.324 26.082 14.3717 26.3207 14.4642 26.5432C14.5568 26.7657 14.6924 26.9677 14.8633 27.1377C15.2093 27.4827 15.678 27.6765 16.1666 27.6765C16.6552 27.6765 17.1239 27.4827 17.4699 27.1377L25.7691 18.8692C26.1263 18.514 26.4098 18.0917 26.6032 17.6266C26.7967 17.1615 26.8962 16.6627 26.8962 16.159C26.8962 15.6553 26.7967 15.1565 26.6032 14.6914C26.4098 14.2263 26.1263 13.804 25.7691 13.4488Z" fill="#4C585B"/>
</svg>
