<svg width="40" height="40" viewBox="0 0 40 40" fill="none" xmlns="http://www.w3.org/2000/svg">
<rect width="40" height="40" rx="20" fill="white"/>
<path d="M19.9999 24.8333C20.6409 24.8333 21.2555 25.088 21.7088 25.5412C22.162 25.9944 22.4166 26.6091 22.4166 27.25C22.4166 27.8909 22.162 28.5056 21.7088 28.9588C21.2555 29.4121 20.6409 29.6667 19.9999 29.6667C19.359 29.6667 18.7443 29.4121 18.2911 28.9588C17.8379 28.5056 17.5833 27.8909 17.5833 27.25C17.5833 26.6091 17.8379 25.9944 18.2911 25.5412C18.7443 25.088 19.359 24.8333 19.9999 24.8333ZM19.9999 17.5833C20.6409 17.5833 21.2555 17.838 21.7088 18.2912C22.162 18.7444 22.4166 19.3591 22.4166 20C22.4166 20.6409 22.162 21.2556 21.7088 21.7088C21.2555 22.1621 20.6409 22.4167 19.9999 22.4167C19.359 22.4167 18.7443 22.1621 18.2911 21.7088C17.8379 21.2556 17.5833 20.6409 17.5833 20C17.5833 19.3591 17.8379 18.7444 18.2911 18.2912C18.7443 17.838 19.359 17.5833 19.9999 17.5833ZM19.9999 10.3333C20.6409 10.3333 21.2555 10.588 21.7088 11.0412C22.162 11.4944 22.4166 12.1091 22.4166 12.75C22.4166 13.3909 22.162 14.0056 21.7088 14.4589C21.2555 14.9121 20.6409 15.1667 19.9999 15.1667C19.359 15.1667 18.7443 14.9121 18.2911 14.4589C17.8379 14.0056 17.5833 13.3909 17.5833 12.75C17.5833 12.1091 17.8379 11.4944 18.2911 11.0412C18.7443 10.588 19.359 10.3333 19.9999 10.3333Z" fill="#4C585B"/>
</svg>
