<svg width="40" height="40" viewBox="0 0 40 40" fill="none" xmlns="http://www.w3.org/2000/svg">
<rect width="40" height="40" rx="20" fill="white"/>
<path d="M23.6458 18.9583C24.5087 18.9583 25.2083 18.2588 25.2083 17.3958C25.2083 16.5329 24.5087 15.8333 23.6458 15.8333C22.7828 15.8333 22.0833 16.5329 22.0833 17.3958C22.0833 18.2588 22.7828 18.9583 23.6458 18.9583Z" fill="#4C585B"/>
<path d="M16.3542 18.9583C17.2172 18.9583 17.9167 18.2588 17.9167 17.3958C17.9167 16.5329 17.2172 15.8333 16.3542 15.8333C15.4913 15.8333 14.7917 16.5329 14.7917 17.3958C14.7917 18.2588 15.4913 18.9583 16.3542 18.9583Z" fill="#4C585B"/>
<path d="M20.0001 26.25C22.3751 26.25 24.3959 24.5208 25.2084 22.0833H14.7917C15.6042 24.5208 17.6251 26.25 20.0001 26.25Z" fill="#4C585B"/>
<path d="M19.9895 9.58334C14.2395 9.58334 9.58325 14.25 9.58325 20C9.58325 25.75 14.2395 30.4167 19.9895 30.4167C25.7499 30.4167 30.4166 25.75 30.4166 20C30.4166 14.25 25.7499 9.58334 19.9895 9.58334ZM19.9999 28.3333C15.3958 28.3333 11.6666 24.6042 11.6666 20C11.6666 15.3958 15.3958 11.6667 19.9999 11.6667C24.6041 11.6667 28.3333 15.3958 28.3333 20C28.3333 24.6042 24.6041 28.3333 19.9999 28.3333Z" fill="#4C585B"/>
</svg>
