<svg width="60" height="60" viewBox="0 0 60 60" fill="none" xmlns="http://www.w3.org/2000/svg">
<path d="M28.2841 15.4722C28.5661 15.0501 28.7166 14.5538 28.7166 14.0462C28.7166 13.3654 28.4462 12.7126 27.9648 12.2312C27.4835 11.7498 26.8306 11.4794 26.1499 11.4794C25.6422 11.4794 25.1459 11.6299 24.7238 11.912C24.3017 12.194 23.9727 12.5949 23.7785 13.0639C23.5842 13.5329 23.5334 14.049 23.6324 14.5469C23.7314 15.0448 23.9759 15.5022 24.3349 15.8612C24.6938 16.2201 25.1512 16.4646 25.6491 16.5636C26.147 16.6627 26.6631 16.6118 27.1321 16.4176C27.6011 16.2233 28.002 15.8943 28.2841 15.4722Z" fill="#8B999D"/>
<path d="M32.4242 11.912C32.8463 11.6299 33.3425 11.4794 33.8502 11.4794C34.5309 11.4794 35.1838 11.7498 35.6652 12.2312C36.1465 12.7126 36.417 13.3654 36.417 14.0462C36.417 14.5538 36.2664 15.0501 35.9844 15.4722C35.7023 15.8943 35.3015 16.2233 34.8324 16.4176C34.3634 16.6118 33.8473 16.6627 33.3494 16.5636C32.8515 16.4646 32.3942 16.2201 32.0352 15.8612C31.6762 15.5022 31.4318 15.0448 31.3327 14.5469C31.2337 14.049 31.2845 13.5329 31.4788 13.0639C31.6731 12.5949 32.0021 12.194 32.4242 11.912Z" fill="#8B999D"/>
<path d="M26.7662 22.4162C25.9772 22.0746 25.0294 22.3306 24.587 23.0678C24.1634 23.7739 24.3529 24.6808 25.0836 25.0605C26.2131 25.6476 28.0039 26.3667 30 26.3667C31.9961 26.3667 33.7869 25.6476 34.9164 25.0605C35.6471 24.6808 35.8366 23.7739 35.413 23.0678C34.9706 22.3306 34.0228 22.0746 33.2338 22.4162C32.2745 22.8316 30.9964 23.2865 30 23.2865C29.0036 23.2865 27.7255 22.8316 26.7662 22.4162Z" fill="#8B999D"/>
<path fill-rule="evenodd" clip-rule="evenodd" d="M45.1136 26.6278C46.5647 24.039 47.3264 21.1208 47.3257 18.153C47.3227 15.534 46.726 12.9498 45.5805 10.5946C44.435 8.2394 42.7704 6.17457 40.7119 4.55533C38.6535 2.93609 36.2547 1.80458 33.696 1.24589C31.1373 0.687193 28.4852 0.715847 25.9392 1.3297C23.3931 1.94354 21.0194 3.12661 18.9964 4.78995C16.9734 6.45329 15.3538 8.55361 14.2595 10.933C13.1651 13.3124 12.6243 15.9089 12.6779 18.5274C12.7315 21.1458 13.3781 23.718 14.5689 26.0506L12.8347 31.2532C12.6439 31.8195 12.615 32.4279 12.7513 33.0098C12.8877 33.5917 13.1838 34.124 13.6064 34.5466C14.029 34.9692 14.5613 35.2653 15.1432 35.4017C15.7251 35.538 16.3335 35.5092 16.8999 35.3183L22.1024 33.5777C24.7439 34.9305 27.6886 35.5821 30.6543 35.47C33.6199 35.358 36.5071 34.486 39.039 32.9377C41.5708 31.3894 43.6626 29.2167 45.1136 26.6278ZM42.0836 12.1935C42.9985 14.0469 43.4748 16.086 43.4756 18.153C43.4763 20.5199 42.8535 22.8452 41.67 24.895C40.4865 26.9447 38.784 28.6466 36.7339 29.8293C34.6837 31.0121 32.3582 31.634 29.9913 31.6325C27.6244 31.6309 25.2997 31.006 23.251 29.8206C22.9586 29.6509 22.6266 29.5613 22.2885 29.5607C22.0813 29.5611 21.8755 29.5947 21.6789 29.6602L16.8999 31.2532L18.4929 26.4742C18.5791 26.2154 18.6094 25.9414 18.5818 25.67C18.5541 25.3987 18.4691 25.1364 18.3324 24.9004C17.2983 23.1107 16.6896 21.1072 16.5537 19.0447C16.4177 16.9821 16.758 14.916 17.5483 13.0061C18.3385 11.0961 19.5576 9.39355 21.1111 8.0301C22.6646 6.66665 24.511 5.67885 26.5073 5.14311C28.5037 4.60737 30.5965 4.53805 32.6239 4.94053C34.6513 5.343 36.559 6.20647 38.1993 7.46414C39.8397 8.72182 41.1687 10.34 42.0836 12.1935Z" fill="#8B999D"/>
<path d="M5.47578 59.1392C4.36237 59.1392 3.39498 58.8928 2.57362 58.4C1.75225 57.9163 1.11797 57.2318 0.670783 56.3466C0.223594 55.4613 0 54.4163 0 53.2117C0 52.7554 0.0547578 52.2489 0.164273 51.6921C0.282915 51.1263 0.470004 50.5651 0.725541 50.0083C0.981077 49.4425 1.32331 48.9269 1.75225 48.4614C2.18119 47.996 2.70595 47.6218 3.32654 47.3389C3.94712 47.0469 4.67723 46.9008 5.51685 46.9008C6.23783 46.9008 6.86754 46.9921 7.40599 47.1746C7.94444 47.348 8.40988 47.5716 8.80232 47.8454C9.19475 48.1101 9.51873 48.3884 9.77427 48.6805C10.0389 48.9725 10.2488 49.2417 10.404 49.4881C10.5591 49.7254 10.6732 49.8988 10.7462 50.0083L8.76125 51.5279C8.56047 51.1537 8.32319 50.7886 8.0494 50.4327C7.77561 50.0677 7.43793 49.7665 7.03638 49.5292C6.63482 49.2919 6.13744 49.1733 5.54423 49.1733C4.93276 49.1733 4.42626 49.3102 4.0247 49.584C3.62314 49.8578 3.30372 50.2046 3.06644 50.6244C2.83828 51.0442 2.67857 51.4914 2.58731 51.9659C2.49604 52.4314 2.45041 52.8649 2.45041 53.2664C2.45041 53.6954 2.49604 54.1197 2.58731 54.5396C2.67857 54.9594 2.83372 55.3427 3.05275 55.6895C3.2809 56.0363 3.58207 56.3146 3.95625 56.5245C4.33956 56.7253 4.81869 56.8257 5.39364 56.8257C6.03248 56.8257 6.55268 56.7116 6.95424 56.4835C7.36492 56.2553 7.70716 55.9359 7.98095 55.5252C8.25474 55.1054 8.51027 54.6171 8.74756 54.0604L10.9926 55.0734C10.5911 55.9039 10.1393 56.6249 9.63737 57.2364C9.13543 57.8478 8.54678 58.3178 7.87143 58.6464C7.19609 58.9749 6.39754 59.1392 5.47578 59.1392Z" fill="#8B999D"/>
<path d="M12.315 58.9886C12.315 58.4319 12.315 57.7201 12.315 56.8531C12.3242 55.9769 12.3333 55.005 12.3424 53.9372C12.3607 52.8694 12.3835 51.7469 12.4109 50.5696C12.4474 49.3923 12.4884 48.215 12.5341 47.0377L14.8613 47.024C14.8248 47.5442 14.7883 48.1785 14.7518 48.9269C14.7153 49.6752 14.6833 50.4783 14.6559 51.3362C15.2857 50.7521 16.0066 50.4601 16.8189 50.4601C17.3756 50.4601 17.8365 50.5605 18.2015 50.7613C18.5757 50.962 18.8769 51.2267 19.105 51.5553C19.3332 51.8747 19.5066 52.226 19.6252 52.6093C19.7439 52.9926 19.826 53.3714 19.8716 53.7456C19.9173 54.1106 19.9401 54.4346 19.9401 54.7175C19.9401 55.3199 19.9355 55.9176 19.9264 56.5108C19.9173 57.104 19.9081 57.6242 19.899 58.0714C19.899 58.5186 19.899 58.8335 19.899 59.016L17.5034 59.0297C17.5399 58.6738 17.5627 58.2631 17.5718 57.7976C17.5901 57.3322 17.5992 56.8531 17.5992 56.3603C17.6083 55.8583 17.6129 55.3837 17.6129 54.9365C17.6129 53.4581 17.2661 52.7189 16.5725 52.7189C16.3626 52.7189 16.1298 52.7736 15.8743 52.8831C15.6188 52.9926 15.3724 53.166 15.1351 53.4033C14.9069 53.6406 14.7244 53.9555 14.5875 54.3479C14.5784 54.9502 14.5738 55.5343 14.5738 56.1002C14.5738 56.6204 14.5784 57.1086 14.5875 57.5649C14.6058 58.0121 14.6194 58.4639 14.6286 58.9202L12.315 58.9886Z" fill="#8B999D"/>
<path d="M24.7208 59.1255C24.0363 59.1255 23.4157 58.9476 22.859 58.5916C22.3023 58.2448 21.8597 57.7748 21.5311 57.1816C21.2117 56.5793 21.052 55.9085 21.052 55.1693C21.052 54.4757 21.1798 53.8505 21.4353 53.2938C21.6909 52.728 22.0377 52.2443 22.4757 51.8427C22.9229 51.4412 23.4294 51.1354 23.9953 50.9255C24.5611 50.7065 25.1543 50.597 25.7749 50.597C26.2951 50.597 26.8062 50.67 27.3081 50.816C27.3446 50.6244 27.3765 50.4327 27.4039 50.2411L29.7448 50.6381C29.6809 50.8115 29.6171 51.0716 29.5532 51.4184C29.4893 51.7652 29.4345 52.153 29.3889 52.582C29.3524 53.0109 29.3204 53.4398 29.2931 53.8688C29.2657 54.2977 29.252 54.6856 29.252 55.0324C29.252 55.3153 29.2703 55.5936 29.3068 55.8674C29.3524 56.1321 29.4437 56.3511 29.5805 56.5245C29.7174 56.6888 29.9273 56.7709 30.2103 56.7709H30.4019L30.0597 59.1529C29.4573 59.1529 28.96 59.0479 28.5675 58.838C28.1751 58.6373 27.8602 58.3635 27.623 58.0167C27.2305 58.4547 26.7833 58.7468 26.2814 58.8928C25.7794 59.0479 25.2592 59.1255 24.7208 59.1255ZM23.2971 55.4431C23.3427 55.8811 23.5207 56.2325 23.831 56.4971C24.1504 56.7527 24.552 56.8805 25.0357 56.8805C25.5011 56.8805 25.889 56.7572 26.1993 56.5108C26.5095 56.2553 26.7651 55.9085 26.9659 55.4704C26.9567 55.3244 26.9522 55.1738 26.9522 55.0187C26.9522 54.6993 26.9613 54.3707 26.9795 54.033C26.9978 53.6954 27.0206 53.3623 27.048 53.0337C26.6647 52.8877 26.2631 52.8147 25.8433 52.8147C25.3505 52.8147 24.9079 52.9151 24.5155 53.1159C24.1321 53.3075 23.831 53.5767 23.6119 53.9235C23.3929 54.2703 23.2834 54.6719 23.2834 55.1282C23.2834 55.183 23.2834 55.2377 23.2834 55.2925C23.2834 55.3472 23.288 55.3974 23.2971 55.4431Z" fill="#8B999D"/>
<path d="M35.3646 59.1255C34.817 59.1255 34.3835 59.0069 34.0641 58.7696C33.7446 58.5414 33.5119 58.222 33.3659 57.8113C33.2199 57.4007 33.124 56.9306 33.0784 56.4013C33.0419 55.872 33.0237 55.3153 33.0237 54.7312C33.0237 54.1289 33.0465 53.5037 33.0921 52.8557C32.4806 52.9379 31.892 53.0428 31.3262 53.1706L30.9018 51.0214C31.6593 50.8206 32.467 50.6746 33.3248 50.5833C33.3887 50.1179 33.4572 49.6296 33.5302 49.1185C33.6032 48.5983 33.6853 48.0508 33.7766 47.4758L36.1312 47.6811C36.0216 48.1557 35.9258 48.6303 35.8437 49.1048C35.7615 49.5703 35.6885 50.022 35.6247 50.4601C36.1357 50.4601 36.6149 50.4738 37.062 50.5012C37.5184 50.5194 37.9382 50.5559 38.3215 50.6107L38.0477 52.7599C37.7283 52.7234 37.3952 52.7006 37.0484 52.6915C36.7107 52.6732 36.3684 52.6641 36.0216 52.6641C35.8117 52.6641 35.6018 52.6687 35.3919 52.6778C35.3372 53.344 35.3007 53.9144 35.2824 54.389C35.2733 54.8635 35.2687 55.2012 35.2687 55.402C35.2687 55.9039 35.2961 56.2644 35.3509 56.4835C35.4147 56.7025 35.5151 56.812 35.652 56.812C35.8072 56.812 35.9806 56.7618 36.1722 56.6614C36.3639 56.5519 36.551 56.4059 36.7335 56.2234C36.9251 56.0408 37.0849 55.8446 37.2126 55.6347L38.2667 57.8387C37.3632 58.6966 36.3958 59.1255 35.3646 59.1255Z" fill="#8B999D"/>
<path d="M39.525 59.016C39.4976 58.222 39.4839 57.3276 39.4839 56.3329C39.4839 55.402 39.4976 54.4163 39.525 53.376C39.5523 52.3356 39.598 51.2769 39.6619 50.2C39.7257 49.1231 39.8033 48.0736 39.8946 47.0514L42.2765 47.0925C42.1944 47.7313 42.1214 48.3839 42.0575 49.0501C42.0028 49.7072 41.9571 50.3688 41.9206 51.0351C42.3039 50.7704 42.7648 50.4647 43.3033 50.1179C43.8508 49.7619 44.4349 49.406 45.0555 49.0501C45.6761 48.685 46.2967 48.3382 46.9173 48.0097C47.547 47.6811 48.1356 47.4028 48.6832 47.1746L49.354 49.5018C48.7973 49.73 48.236 49.981 47.6702 50.2548C47.1135 50.5285 46.5796 50.8023 46.0685 51.0761C45.5666 51.3408 45.1194 51.5963 44.727 51.8427C44.3345 52.08 44.0242 52.2899 43.7961 52.4724C43.5679 52.6458 43.4538 52.7736 43.4538 52.8557C43.4538 52.9744 43.6318 53.1752 43.9877 53.4581C44.3437 53.741 44.8274 54.0741 45.4388 54.4574C46.0503 54.8407 46.7439 55.2423 47.5196 55.6621C48.3045 56.0819 49.1167 56.4926 49.9563 56.8941L48.6832 59.0023C47.6428 58.4639 46.6846 57.9254 45.8084 57.387C44.9414 56.8394 44.1657 56.3237 43.4812 55.84C42.8059 55.3564 42.2446 54.9411 41.7974 54.5943C41.7974 54.932 41.7974 55.2697 41.7974 55.6073C41.7974 56.2188 41.802 56.812 41.8111 57.387C41.8294 57.9528 41.8476 58.4821 41.8659 58.9749L39.525 59.016Z" fill="#8B999D"/>
<path d="M54.3189 59.1255C53.6344 59.1255 53.0138 58.9476 52.4571 58.5916C51.9004 58.2448 51.4578 57.7748 51.1292 57.1816C50.8098 56.5793 50.6501 55.9085 50.6501 55.1693C50.6501 54.4757 50.7779 53.8505 51.0334 53.2938C51.2889 52.728 51.6357 52.2443 52.0738 51.8427C52.521 51.4412 53.0275 51.1354 53.5933 50.9255C54.1592 50.7065 54.7524 50.597 55.373 50.597C55.8932 50.597 56.4042 50.67 56.9062 50.816C56.9427 50.6244 56.9746 50.4327 57.002 50.2411L59.3429 50.6381C59.279 50.8115 59.2151 51.0716 59.1513 51.4184C59.0874 51.7652 59.0326 52.153 58.987 52.582C58.9505 53.0109 58.9185 53.4398 58.8912 53.8688C58.8638 54.2977 58.8501 54.6856 58.8501 55.0324C58.8501 55.3153 58.8683 55.5936 58.9048 55.8674C58.9505 56.1321 59.0417 56.3511 59.1786 56.5245C59.3155 56.6888 59.5254 56.7709 59.8083 56.7709H60L59.6578 59.1529C59.0554 59.1529 58.558 59.0479 58.1656 58.838C57.7732 58.6373 57.4583 58.3635 57.221 58.0167C56.8286 58.4547 56.3814 58.7468 55.8795 58.8928C55.3775 59.0479 54.8573 59.1255 54.3189 59.1255ZM52.8952 55.4431C52.9408 55.8811 53.1188 56.2325 53.4291 56.4971C53.7485 56.7527 54.15 56.8805 54.6337 56.8805C55.0992 56.8805 55.487 56.7572 55.7973 56.5108C56.1076 56.2553 56.3632 55.9085 56.564 55.4704C56.5548 55.3244 56.5503 55.1738 56.5503 55.0187C56.5503 54.6993 56.5594 54.3707 56.5776 54.033C56.5959 53.6954 56.6187 53.3623 56.6461 53.0337C56.2628 52.8877 55.8612 52.8147 55.4414 52.8147C54.9486 52.8147 54.506 52.9151 54.1135 53.1159C53.7302 53.3075 53.4291 53.5767 53.21 53.9235C52.991 54.2703 52.8815 54.6719 52.8815 55.1282C52.8815 55.183 52.8815 55.2377 52.8815 55.2925C52.8815 55.3472 52.8861 55.3974 52.8952 55.4431Z" fill="#8B999D"/>
</svg>
