<svg width="40" height="40" viewBox="0 0 40 40" fill="none" xmlns="http://www.w3.org/2000/svg">
<path d="M15.1499 29.1C14.8999 28.85 14.7749 28.554 14.7749 28.212C14.7749 27.87 14.8999 27.5743 15.1499 27.325L22.4749 20L15.1249 12.65C14.8916 12.4167 14.7749 12.125 14.7749 11.775C14.7749 11.425 14.8999 11.125 15.1499 10.875C15.3999 10.625 15.6959 10.5 16.0379 10.5C16.3799 10.5 16.6756 10.625 16.9249 10.875L25.3249 19.3C25.4249 19.4 25.4959 19.5083 25.5379 19.625C25.5799 19.7417 25.6006 19.8667 25.5999 20C25.5999 20.1333 25.5789 20.2583 25.5369 20.375C25.4949 20.4917 25.4242 20.6 25.3249 20.7L16.8999 29.125C16.6666 29.3583 16.3789 29.475 16.0369 29.475C15.6949 29.475 15.3992 29.35 15.1499 29.1Z" fill="#4C585B"/>
</svg>
