<svg width="50" height="50" viewBox="0 0 50 50" fill="none" xmlns="http://www.w3.org/2000/svg">
<rect width="50" height="50" rx="25" fill="white"/>
<path d="M25 17C26.0609 17 27.0783 17.4214 27.8284 18.1716C28.5786 18.9217 29 19.9391 29 21C29 22.0609 28.5786 23.0783 27.8284 23.8284C27.0783 24.5786 26.0609 25 25 25C23.9391 25 22.9217 24.5786 22.1716 23.8284C21.4214 23.0783 21 22.0609 21 21C21 19.9391 21.4214 18.9217 22.1716 18.1716C22.9217 17.4214 23.9391 17 25 17ZM25 27C29.42 27 33 28.79 33 31V33H17V31C17 28.79 20.58 27 25 27Z" fill="#4C585B"/>
</svg>
