<svg width="40" height="40" viewBox="0 0 40 40" fill="none" xmlns="http://www.w3.org/2000/svg">
<rect width="40" height="40" rx="20" fill="white"/>
<path d="M14 24H22V23.45C22 22.7167 21.6333 22.125 20.9 21.675C20.1667 21.225 19.2 21 18 21C16.8 21 15.8333 21.225 15.1 21.675C14.3667 22.125 14 22.7167 14 23.45V24ZM18 20C18.55 20 19.021 19.804 19.413 19.412C19.805 19.02 20.0007 18.5493 20 18C20 17.45 19.804 16.979 19.412 16.587C19.02 16.195 18.5493 15.9993 18 16C17.45 16 16.979 16.196 16.587 16.588C16.195 16.98 15.9993 17.4507 16 18C16 18.55 16.196 19.021 16.588 19.413C16.98 19.805 17.4507 20.0007 18 20ZM12 28C11.45 28 10.979 27.804 10.587 27.412C10.195 27.02 9.99934 26.5493 10 26V14C10 13.45 10.196 12.979 10.588 12.587C10.98 12.195 11.4507 11.9993 12 12H24C24.55 12 25.021 12.196 25.413 12.588C25.805 12.98 26.0007 13.4507 26 14V18.5L30 14.5V25.5L26 21.5V26C26 26.55 25.804 27.021 25.412 27.413C25.02 27.805 24.5493 28.0007 24 28H12Z" fill="#4C585B"/>
</svg>
