<svg width="40" height="40" viewBox="0 0 40 40" fill="none" xmlns="http://www.w3.org/2000/svg">
<rect width="40" height="40" rx="20" fill="white"/>
<path d="M20 22.25C19.0625 22.25 18.2656 21.9219 17.6094 21.2656C16.9531 20.6094 16.625 19.8125 16.625 18.875V12.125C16.625 11.1875 16.9531 10.3906 17.6094 9.73437C18.2656 9.07812 19.0625 8.75 20 8.75C20.9375 8.75 21.7344 9.07812 22.3906 9.73437C23.0469 10.3906 23.375 11.1875 23.375 12.125V18.875C23.375 19.8125 23.0469 20.6094 22.3906 21.2656C21.7344 21.9219 20.9375 22.25 20 22.25ZM18.875 30.125V26.6656C16.925 26.4031 15.3125 25.5312 14.0375 24.05C12.7625 22.5687 12.125 20.8437 12.125 18.875H14.375C14.375 20.4312 14.9236 21.758 16.0209 22.8552C17.1181 23.9525 18.4445 24.5007 20 24.5C21.5562 24.5 22.883 23.9514 23.9802 22.8541C25.0775 21.7569 25.6257 20.4305 25.625 18.875H27.875C27.875 20.8437 27.2375 22.5687 25.9625 24.05C24.6875 25.5312 23.075 26.4031 21.125 26.6656V30.125H18.875Z" fill="#4C585B"/>
</svg>
